<svg width="31" height="31" viewBox="0 0 31 31" fill="none" xmlns="http://www.w3.org/2000/svg">
<g id="gridicons:camera">
<path id="Vector" d="M21.958 15.5C21.958 17.6958 20.2788 19.375 18.083 19.375C15.8872 19.375 14.208 17.6958 14.208 15.5C14.208 13.3042 15.8872 11.625 18.083 11.625C20.2788 11.625 21.958 13.3042 21.958 15.5ZM28.4163 9.04167V23.25C28.4163 24.6708 27.2538 25.8333 25.833 25.8333H5.16634C3.74551 25.8333 2.58301 24.6708 2.58301 23.25V9.04167C2.58301 7.62083 3.74551 6.45833 5.16634 6.45833V5.16667H10.333V6.45833H12.9163L14.208 3.875H21.958L23.2497 6.45833H25.833C27.2538 6.45833 28.4163 7.62083 28.4163 9.04167ZM9.68717 11.625C9.68717 10.5917 8.78301 9.6875 7.74967 9.6875C6.71634 9.6875 5.81217 10.5917 5.81217 11.625C5.81217 12.6583 6.71634 13.5625 7.74967 13.5625C8.78301 13.5625 9.68717 12.6583 9.68717 11.625ZM24.5413 15.5C24.5413 11.8833 21.6997 9.04167 18.083 9.04167C14.4663 9.04167 11.6247 11.8833 11.6247 15.5C11.6247 19.1167 14.4663 21.9583 18.083 21.9583C21.6997 21.9583 24.5413 19.1167 24.5413 15.5Z" fill="white"/>
</g>
</svg>
