<svg width="29" height="29" viewBox="0 0 29 29" fill="none" xmlns="http://www.w3.org/2000/svg">
<path d="M2.9624 6.79095L4.41997 5.34478L6.37857 7.30338L6.69741 7.62222L7.83613 8.76094L10.1136 11.0384L18.9045 19.8293L21.1819 22.1068L23.4594 24.3842L22.0132 25.8418L20.3507 24.1792C19.9635 24.5095 19.4739 24.703 18.9045 24.703H9.79473C8.54214 24.703 7.51729 23.6782 7.51729 22.4256V11.3458L2.9624 6.79095ZM9.79473 22.4256H18.597L9.79473 13.6233V22.4256ZM21.1819 8.76094V19.2144L18.9045 16.937V11.0384H13.0059L10.7285 8.76094H21.1819ZM18.3351 5.34478H22.3207V7.62222H9.58976L7.31232 5.34478H10.3641L11.5028 4.20605H17.1964L18.3351 5.34478Z" fill="#F24091"/>
</svg>
