<svg width="29" height="28" viewBox="0 0 29 28" fill="none" xmlns="http://www.w3.org/2000/svg">
<g id="solar:gallery-bold">
<path id="Vector" d="M19.9997 9.33333C19.9997 9.95217 19.7538 10.5457 19.3163 10.9832C18.8787 11.4208 18.2852 11.6667 17.6663 11.6667C17.0475 11.6667 16.454 11.4208 16.0164 10.9832C15.5788 10.5457 15.333 9.95217 15.333 9.33333C15.333 8.71449 15.5788 8.121 16.0164 7.68342C16.454 7.24583 17.0475 7 17.6663 7C18.2852 7 18.8787 7.24583 19.3163 7.68342C19.7538 8.121 19.9997 8.71449 19.9997 9.33333Z" fill="white"/>
<path id="Vector_2" fill-rule="evenodd" clip-rule="evenodd" d="M12.9332 1.45832H13.0662C15.76 1.45832 17.8705 1.45832 19.5178 1.67999C21.2025 1.90632 22.5325 2.37999 23.5767 3.42299C24.6208 4.46715 25.0933 5.79715 25.3197 7.48299C25.5413 9.12915 25.5413 11.2397 25.5413 13.9335V14.0362C25.5413 16.2633 25.5413 18.0857 25.42 19.5697C25.2987 21.063 25.0502 22.3078 24.4925 23.3438C24.2483 23.7996 23.943 24.2107 23.5767 24.577C22.5325 25.6212 21.2025 26.0937 19.5167 26.32C17.8705 26.5417 15.76 26.5417 13.0662 26.5417H12.9332C10.2393 26.5417 8.12884 26.5417 6.48151 26.32C4.79684 26.0937 3.46684 25.62 2.42267 24.577C1.49751 23.6518 1.01917 22.5003 0.766008 21.07C0.515175 19.6665 0.469674 17.92 0.460341 15.7523C0.458786 15.2001 0.458008 14.616 0.458008 14V13.9323C0.458008 11.2385 0.458008 9.12799 0.679675 7.48065C0.906008 5.79599 1.37967 4.46599 2.42267 3.42182C3.46684 2.37765 4.79684 1.90515 6.48268 1.67882C8.12884 1.45715 10.2393 1.45715 12.9332 1.45715M6.71484 3.41249C5.22384 3.61315 4.32434 3.99582 3.66051 4.65965C2.99551 5.32465 2.61401 6.22299 2.41334 7.71515C2.21034 9.23182 2.20801 11.2245 2.20801 13.9988V14.9835L3.37584 13.9615C3.88809 13.5131 4.55163 13.2761 5.23205 13.2987C5.91246 13.3212 6.55887 13.6015 7.04034 14.0828L12.0453 19.0878C12.4337 19.4761 12.9467 19.715 13.4938 19.7624C14.041 19.8097 14.5873 19.6626 15.0367 19.3468L15.3843 19.1018C16.0326 18.6463 16.8163 18.4242 17.6072 18.4719C18.3981 18.5196 19.1495 18.8342 19.7383 19.3643L23.04 22.3358C23.3737 21.6382 23.5708 20.7212 23.6758 19.4273C23.7902 18.0215 23.7913 16.2692 23.7913 13.9988C23.7913 11.2245 23.789 9.23182 23.586 7.71515C23.3853 6.22299 23.0027 5.32349 22.3388 4.65849C21.6738 3.99465 20.7755 3.61315 19.2833 3.41249C17.7667 3.20949 15.774 3.20715 12.9997 3.20715C10.2253 3.20715 8.23151 3.20949 6.71484 3.41249Z" fill="white"/>
</g>
</svg>
