<svg width="37" height="37" viewBox="0 0 37 37" fill="none" xmlns="http://www.w3.org/2000/svg">
<rect x="0.31311" y="0.656616" width="36" height="36" rx="8" fill="#FF7D43"/>
<path d="M18.4481 25.1212C17.5781 25.1498 16.7459 25.0142 15.9515 24.7144C15.1571 24.4146 14.4593 23.978 13.8581 23.4047C13.2569 22.8315 12.7991 22.1878 12.4847 21.4738C12.1703 20.7598 12.0131 20.0017 12.0131 19.1995C12.0131 18.9135 12.0281 18.6348 12.0581 18.3636C12.0881 18.0924 12.1481 17.8275 12.2381 17.5689C12.3581 17.2256 12.3509 16.8824 12.2165 16.5391C12.0821 16.1958 11.8493 15.9526 11.5181 15.8096C11.1581 15.6666 10.8059 15.6666 10.4615 15.8096C10.1171 15.9526 9.88431 16.1958 9.76311 16.5391C9.61311 16.9682 9.50091 17.3973 9.42651 17.8264C9.35211 18.2555 9.31431 18.6989 9.31311 19.1566C9.31311 20.3009 9.54591 21.3954 10.0115 22.4401C10.4771 23.4848 11.1293 24.4071 11.9681 25.207C12.7781 26.008 13.7309 26.623 14.8265 27.0521C15.9221 27.4812 17.0543 27.7101 18.2231 27.7387L17.4581 28.4682C17.1881 28.7256 17.0531 29.026 17.0531 29.3693C17.0531 29.7126 17.1881 30.013 17.4581 30.2704C17.7281 30.5279 18.0431 30.6566 18.4031 30.6566C18.7631 30.6566 19.0781 30.5279 19.3481 30.2704L22.2281 27.5242C22.5881 27.1809 22.7681 26.7804 22.7681 26.3227C22.7681 25.8649 22.5881 25.4645 22.2281 25.1212L19.3481 22.3749C19.0781 22.1174 18.7631 21.9887 18.4031 21.9887C18.0431 21.9887 17.7281 22.1174 17.4581 22.3749C17.1881 22.6324 17.0531 22.9327 17.0531 23.276C17.0531 23.6193 17.1881 23.9197 17.4581 24.1771L18.4481 25.1212ZM18.1331 13.1492C19.0031 13.1492 19.8431 13.2996 20.6531 13.6006C21.4631 13.9015 22.1681 14.3375 22.7681 14.9085C23.3681 15.4795 23.8259 16.1231 24.1415 16.8395C24.4571 17.5558 24.6143 18.3139 24.6131 19.1137C24.6131 19.3998 24.5981 19.6784 24.5681 19.9496C24.5381 20.2208 24.4781 20.4857 24.3881 20.7443C24.2681 21.0876 24.2759 21.4377 24.4115 21.7947C24.5471 22.1518 24.7793 22.4024 25.1081 22.5465C25.4681 22.6896 25.8209 22.6896 26.1665 22.5465C26.5121 22.4035 26.7443 22.1603 26.8631 21.8171C27.0131 21.388 27.1259 20.9514 27.2015 20.5074C27.2771 20.0635 27.3143 19.6132 27.3131 19.1566C27.3131 18.0123 27.0953 16.9184 26.6597 15.8748C26.2241 14.8312 25.5719 13.8941 24.7031 13.0633C23.8631 12.2623 22.8959 11.6547 21.8015 11.2405C20.7071 10.8263 19.5743 10.6186 18.4031 10.6174L19.2131 9.84505C19.4531 9.58759 19.5731 9.28721 19.5731 8.94393C19.5731 8.60065 19.4381 8.30027 19.1681 8.04281C18.8981 7.78535 18.5831 7.65662 18.2231 7.65662C17.8631 7.65662 17.5481 7.78535 17.2781 8.04281L14.3981 10.7891C14.0381 11.1324 13.8581 11.5329 13.8581 11.9906C13.8581 12.4483 14.0381 12.8488 14.3981 13.1921L17.2781 15.9383C17.5481 16.1958 17.8631 16.3245 18.2231 16.3245C18.5831 16.3245 18.8981 16.1958 19.1681 15.9383C19.4381 15.6809 19.5731 15.3805 19.5731 15.0372C19.5731 14.6939 19.4381 14.3936 19.1681 14.1361L18.1331 13.1492Z" fill="white"/>
</svg>
